<svg xmlns="http://www.w3.org/2000/svg" xmlns:xlink="http://www.w3.org/1999/xlink" width="1889" zoomAndPan="magnify" viewBox="0 0 1416.96 1417.499962" height="1889" preserveAspectRatio="xMidYMid meet" version="1.0"><defs><clipPath id="a1acd24131"><path d="M 0.230469 0 L 1416.691406 0 L 1416.691406 1416.5 L 0.230469 1416.5 Z M 0.230469 0 " clip-rule="nonzero"/></clipPath><clipPath id="5fe92fbb3e"><path d="M 263.886719 274.40625 L 1152.761719 274.40625 L 1152.761719 1142.292969 L 263.886719 1142.292969 Z M 263.886719 274.40625 " clip-rule="nonzero"/></clipPath><clipPath id="6a530792fc"><path d="M 372.882812 368.832031 L 1043.660156 368.832031 L 1043.660156 1047.851562 L 372.882812 1047.851562 Z M 372.882812 368.832031 " clip-rule="nonzero"/></clipPath></defs><g clip-path="url(#a1acd24131)"><path fill="#fddd08" d="M 0.230469 0 L 1416.730469 0 L 1416.730469 1416.5 L 0.230469 1416.5 L 0.230469 0 " fill-opacity="1" fill-rule="nonzero"/></g><g clip-path="url(#5fe92fbb3e)"><path fill="#a6a6a6" d="M 263.886719 274.40625 L 1152.761719 274.40625 L 1152.761719 1142.289062 L 263.886719 1142.289062 L 263.886719 274.40625 " fill-opacity="1" fill-rule="nonzero"/></g><g clip-path="url(#6a530792fc)"><path fill="#ffe957" d="M 372.882812 368.832031 L 1043.660156 368.832031 L 1043.660156 1047.851562 L 372.882812 1047.851562 L 372.882812 368.832031 " fill-opacity="1" fill-rule="nonzero"/></g></svg>