<svg xmlns="http://www.w3.org/2000/svg" xmlns:xlink="http://www.w3.org/1999/xlink" width="1889" zoomAndPan="magnify" viewBox="0 0 1416.96 1417.499962" height="1889" preserveAspectRatio="xMidYMid meet" version="1.0"><defs><clipPath id="6dcded99e7"><path d="M 0.230469 0 L 1416.691406 0 L 1416.691406 1416.5 L 0.230469 1416.5 Z M 0.230469 0 " clip-rule="nonzero"/></clipPath><clipPath id="c327c2837b"><path d="M 267.566406 268.078125 L 1148.945312 268.078125 L 1148.945312 1147.210938 L 267.566406 1147.210938 Z M 267.566406 268.078125 " clip-rule="nonzero"/></clipPath><clipPath id="4ddfdb4e10"><path d="M 517.242188 518.449219 L 895.726562 518.449219 L 895.726562 897.679688 L 517.242188 897.679688 Z M 517.242188 518.449219 " clip-rule="nonzero"/></clipPath></defs><g clip-path="url(#6dcded99e7)"><path fill="#b87333" d="M 0.230469 0 L 1416.730469 0 L 1416.730469 1416.5 L 0.230469 1416.5 L 0.230469 0 " fill-opacity="1" fill-rule="nonzero"/></g><g clip-path="url(#c327c2837b)"><path fill="#b66417" d="M 267.570312 268.078125 L 1148.941406 268.078125 L 1148.941406 1147.210938 L 267.570312 1147.210938 L 267.570312 268.078125 " fill-opacity="1" fill-rule="nonzero"/></g><g clip-path="url(#4ddfdb4e10)"><path fill="#d86900" d="M 517.242188 518.449219 L 895.726562 518.449219 L 895.726562 897.679688 L 517.242188 897.679688 L 517.242188 518.449219 " fill-opacity="1" fill-rule="nonzero"/></g></svg>